# xmcd
#
# Track frame offsets:
#	150
#	20327
#	35826
#	51201
#	66506
#	83157
#	103815
#	125341
#	144590
#
# Disc length: 2446 seconds
#
# Revision: 0
# Processed by: cddbd v1.4PL0 Copyright (c) Steve Scherf et al.
# Submitted via: dBpowerAMP V4.0
#
DISCID=80098c09
DTITLE=Dennis Agajanian - Come On Home
DYEAR=2002
DGENRE=Country
TTITLE0=Red and White Tent
TTITLE1=Come On Home
TTITLE2=Truth is Truth
TTITLE3=In the Desert
TTITLE4=¿Con Qué Pagaremos?
TTITLE5=Lord, Give Us America
TTITLE6=Down the Road
TTITLE7=He
TTITLE8=Orange Blossom Special
EXTD=
EXTT0=
EXTT1=
EXTT2=
EXTT3=
EXTT4=
EXTT5=
EXTT6=
EXTT7=
EXTT8=
PLAYORDER=
